<svg width="527" height="80" viewBox="0 0 527 80" fill="none" xmlns="http://www.w3.org/2000/svg">
<path fill-rule="evenodd" clip-rule="evenodd" d="M86.2187 40.3544C86.2187 62.0577 103.874 79.7144 125.574 79.7144C147.279 79.7144 164.937 62.0577 164.937 40.3544C164.937 18.6547 147.279 1 125.574 1C103.874 1 86.2187 18.6547 86.2187 40.3544ZM211.858 79.7132C190.163 79.7132 172.511 62.058 172.511 40.3568C172.511 18.656 190.163 1.00081 211.858 1.00081C222.372 1.00081 232.259 5.09347 239.698 12.5259L241.353 14.1785L232.068 23.4722L230.413 21.815C225.453 16.8499 218.864 14.1152 211.858 14.1152C197.393 14.1152 185.623 25.8869 185.623 40.3568C185.623 54.8292 197.393 66.6033 211.858 66.6033C223.826 66.6033 234.289 58.3097 237.234 46.9112H209.52V33.8008H250.693L250.938 35.8646C251.133 37.5122 251.229 38.9816 251.229 40.3568C251.229 41.738 251.136 43.1644 250.938 44.8459C248.694 64.7188 231.892 79.7132 211.858 79.7132ZM297.89 79.7134C276.189 79.7134 258.535 62.0562 258.535 40.3524C258.535 18.6536 276.189 1.00096 297.89 1.00096C319.595 1.00096 337.254 18.6536 337.254 40.3524C337.254 62.0562 319.595 79.7134 297.89 79.7134ZM297.89 14.1807C283.454 14.1807 271.709 25.9215 271.709 40.3524C271.709 54.7853 283.454 66.5275 297.89 66.5275C312.327 66.5275 324.071 54.7853 324.071 40.3524C324.071 25.9215 312.327 14.1807 297.89 14.1807ZM125.574 14.1777C111.138 14.1777 99.3937 25.9205 99.3937 40.3544C99.3937 54.7863 111.138 66.5281 125.574 66.5281C140.011 66.5281 151.755 54.7863 151.755 40.3544C151.755 25.9205 140.011 14.1777 125.574 14.1777ZM0.101257 40.3568C0.101257 62.058 17.7539 79.7132 39.4523 79.7132C59.4847 79.7132 76.2862 64.7193 78.5349 44.8393C78.7288 43.1507 78.8195 41.7259 78.8195 40.3568C78.8195 38.9942 78.7258 37.5269 78.5344 35.8712L78.2949 33.8008H37.1135V46.9112H64.8251C61.8797 58.3097 51.4182 66.6033 39.4523 66.6033C24.9845 66.6033 13.2135 54.8292 13.2135 40.3568C13.2135 25.8869 24.9845 14.1152 39.4523 14.1152C46.4585 14.1152 53.0456 16.8499 57.9991 21.814L59.6534 23.4727L68.9422 14.1785L67.287 12.5249C59.8458 5.09347 49.9609 1.00081 39.4523 1.00081C17.7539 1.00081 0.101257 18.656 0.101257 40.3568Z" fill="white"/>
<path d="M362.247 79.71L336.984 1H352.46L370.346 59.254L387.654 1H402.792L377.482 79.71H362.247Z" fill="#FFDD00"/>
<path d="M464.504 79.71H448.98L442.809 61.8311H414.558L408.724 79.71H393.586L421.114 1H436.204L464.504 79.71ZM438.229 48.5696L428.491 19.3621L418.945 48.5696H438.229Z" fill="#FFDD00"/>
<path d="M470.291 79.71V1H484.176L513.103 53.5628V1H526.361V79.71H512.042L483.549 28.3821V79.71H470.291Z" fill="#FFDD00"/>
</svg>
