<svg width="439" height="80" viewBox="0 0 439 80" fill="none" xmlns="http://www.w3.org/2000/svg">
<path fill-rule="evenodd" clip-rule="evenodd" d="M415.738 45.4136L435.803 62.0769C439.869 66.1417 439.868 72.7331 435.803 76.7984C431.738 80.8637 425.147 80.8637 421.081 76.7984L404.417 56.7336C401.427 53.7437 396.579 53.7437 393.59 56.7336L376.926 76.7984C372.86 80.8637 366.269 80.8637 362.204 76.7984C358.138 72.7331 358.138 66.1417 362.204 62.0769L382.268 45.4136C385.259 42.4237 385.259 37.5756 382.268 34.5857L362.204 17.9224C358.138 13.8576 358.138 7.26622 362.204 3.2009C366.269 -0.864413 372.86 -0.864413 376.926 3.2009L393.59 23.2657C396.382 26.0581 400.796 26.2419 403.803 23.8171C403.827 23.7969 403.851 23.7771 403.875 23.7574C407.051 21.1953 411.714 21.3888 414.664 24.3391C417.615 27.2895 417.809 31.9518 415.246 35.127C415.226 35.1518 415.206 35.1766 415.186 35.2009C412.762 38.207 412.945 42.6201 415.738 45.4136ZM421.081 3.2006C416.574 7.70794 415.404 15.1728 419.663 19.4315C423.921 23.6897 431.297 22.429 435.803 17.9226C439.869 13.8573 439.869 7.26642 435.803 3.2006C431.738 -0.86421 425.147 -0.86421 421.081 3.2006Z" fill="#FFDD00"/>
<path fill-rule="evenodd" clip-rule="evenodd" d="M86.2187 39.9975C86.2187 61.7008 103.874 79.3575 125.574 79.3575C147.279 79.3575 164.937 61.7008 164.937 39.9975C164.937 18.2978 147.279 0.643066 125.574 0.643066C103.874 0.643066 86.2187 18.2978 86.2187 39.9975ZM211.858 79.3563C190.163 79.3563 172.511 61.7011 172.511 39.9998C172.511 18.2991 190.163 0.643877 211.858 0.643877C222.372 0.643877 232.259 4.73654 239.698 12.1689L241.353 13.8216L232.068 23.1153L230.413 21.4581C225.453 16.493 218.864 13.7583 211.858 13.7583C197.393 13.7583 185.623 25.53 185.623 39.9998C185.623 54.4722 197.393 66.2464 211.858 66.2464C223.826 66.2464 234.289 57.9527 237.234 46.5543H209.52V33.4439H250.693L250.938 35.5077C251.133 37.1553 251.229 38.6246 251.229 39.9998C251.229 41.3811 251.136 42.8074 250.938 44.4889C248.694 64.3619 231.892 79.3563 211.858 79.3563ZM297.89 79.3564C276.189 79.3564 258.535 61.6992 258.535 39.9954C258.535 18.2967 276.189 0.644028 297.89 0.644028C319.595 0.644028 337.254 18.2967 337.254 39.9954C337.254 61.6992 319.595 79.3564 297.89 79.3564ZM297.89 13.8238C283.454 13.8238 271.709 25.5645 271.709 39.9954C271.709 54.4283 283.454 66.1706 297.89 66.1706C312.327 66.1706 324.071 54.4283 324.071 39.9954C324.071 25.5645 312.327 13.8238 297.89 13.8238ZM125.574 13.8208C111.138 13.8208 99.3937 25.5636 99.3937 39.9975C99.3937 54.4294 111.138 66.1712 125.574 66.1712C140.011 66.1712 151.755 54.4294 151.755 39.9975C151.755 25.5636 140.011 13.8208 125.574 13.8208ZM0.101257 39.9998C0.101257 61.7011 17.7539 79.3563 39.4523 79.3563C59.4847 79.3563 76.2862 64.3624 78.5349 44.4824C78.7288 42.7938 78.8195 41.3689 78.8195 39.9998C78.8195 38.6373 78.7258 37.17 78.5344 35.5143L78.2949 33.4439H37.1135V46.5543H64.8251C61.8797 57.9527 51.4182 66.2464 39.4523 66.2464C24.9845 66.2464 13.2135 54.4722 13.2135 39.9998C13.2135 25.53 24.9845 13.7583 39.4523 13.7583C46.4585 13.7583 53.0456 16.493 57.9991 21.457L59.6534 23.1158L68.9422 13.8216L67.287 12.1679C59.8458 4.73654 49.9609 0.643877 39.4523 0.643877C17.7539 0.643877 0.101257 18.2991 0.101257 39.9998Z" fill="white"/>
</svg>
